<?xml version="1.0" encoding="UTF-8" standalone="no"?>
<!DOCTYPE svg PUBLIC "-//W3C//DTD SVG 1.1//EN" "http://www.w3.org/Graphics/SVG/1.1/DTD/svg11.dtd">
<svg version="1.1" xmlns="http://www.w3.org/2000/svg" xmlns:xlink="http://www.w3.org/1999/xlink" preserveAspectRatio="xMidYMid meet" viewBox="0 0 535 1080" width="535" height="1080"><defs><path d="M8.85 14.13L269.24 14.13L269.24 543.83L8.85 543.83L8.85 14.13Z" id="d3EXj8h4j3"></path><path d="M267.54 14.13L527.94 14.13L527.94 543.83L267.54 543.83L267.54 14.13Z" id="b2kddFZCc9"></path><path d="M8.85 543.83L269.24 543.83L269.24 1073.53L8.85 1073.53L8.85 543.83Z" id="bHvMwZY8"></path><path d="M267.54 543.83L527.94 543.83L527.94 1073.53L267.54 1073.53L267.54 543.83Z" id="a2F39h9StI"></path><path d="M126.27 278.98L168.76 253L126.27 227.5" id="a25JMLDJ21"></path><path d="M428.25 278.98L385.76 253L428.25 227.5" id="a1c5SJKX2M"></path><path d="M407 851.5L364.51 825.53L407 800.03" id="a10QCrQYoZ"></path><path d="M449.49 851.5L407 825.53L449.49 800.03" id="a1buAvuVOl"></path><path d="M139.05 851.5L181.54 825.53L139.05 800.03" id="d3V9tpGEzV"></path><path d="M96.56 851.5L139.05 825.53L96.56 800.03" id="a1FirF4NoJ"></path></defs><g><g><g><use xlink:href="#d3EXj8h4j3" opacity="1" fill="#12eae8" fill-opacity="1"></use></g><g><use xlink:href="#b2kddFZCc9" opacity="1" fill="#0ded06" fill-opacity="1"></use></g><g><use xlink:href="#bHvMwZY8" opacity="1" fill="#ea8212" fill-opacity="1"></use></g><g><use xlink:href="#a2F39h9StI" opacity="1" fill="#eade13" fill-opacity="1"></use></g><g><g><use xlink:href="#a25JMLDJ21" opacity="1" fill-opacity="0" stroke="#000000" stroke-width="1" stroke-opacity="1"></use></g></g><g><g><use xlink:href="#a1c5SJKX2M" opacity="1" fill-opacity="0" stroke="#000000" stroke-width="1" stroke-opacity="1"></use></g></g><g><g><use xlink:href="#a10QCrQYoZ" opacity="1" fill-opacity="0" stroke="#000000" stroke-width="1" stroke-opacity="1"></use></g></g><g><g><use xlink:href="#a1buAvuVOl" opacity="1" fill-opacity="0" stroke="#000000" stroke-width="1" stroke-opacity="1"></use></g></g><g><g><use xlink:href="#d3V9tpGEzV" opacity="1" fill-opacity="0" stroke="#000000" stroke-width="1" stroke-opacity="1"></use></g></g><g><g><use xlink:href="#a1FirF4NoJ" opacity="1" fill-opacity="0" stroke="#000000" stroke-width="1" stroke-opacity="1"></use></g></g></g></g></svg>