<svg xmlns="http://www.w3.org/2000/svg" xmlns:xlink="http://www.w3.org/1999/xlink" width="535" height="1080" preserveAspectRatio="xMidYMid meet" version="1.1" viewBox="0 0 535 1080"><defs><path id="d3EXj8h4j3" d="M8.85 14.13L269.24 14.13L269.24 543.83L8.85 543.83L8.85 14.13Z"/><path id="b2kddFZCc9" d="M267.54 14.13L527.94 14.13L527.94 543.83L267.54 543.83L267.54 14.13Z"/><path id="bHvMwZY8" d="M8.85 543.83L269.24 543.83L269.24 1073.53L8.85 1073.53L8.85 543.83Z"/><path id="a2F39h9StI" d="M267.54 543.83L527.94 543.83L527.94 1073.53L267.54 1073.53L267.54 543.83Z"/><path id="a25JMLDJ21" d="M126.27 278.98L168.76 253L126.27 227.5"/><path id="a1c5SJKX2M" d="M428.25 278.98L385.76 253L428.25 227.5"/><path id="a10QCrQYoZ" d="M407 851.5L364.51 825.53L407 800.03"/><path id="a1buAvuVOl" d="M449.49 851.5L407 825.53L449.49 800.03"/><path id="d3V9tpGEzV" d="M139.05 851.5L181.54 825.53L139.05 800.03"/><path id="a1FirF4NoJ" d="M96.56 851.5L139.05 825.53L96.56 800.03"/></defs><g><g><g><use fill="#12eae8" fill-opacity="1" opacity="1" xlink:href="#d3EXj8h4j3"/></g><g><use fill="#0ded06" fill-opacity="1" opacity="1" xlink:href="#b2kddFZCc9"/></g><g><use fill="#ea8212" fill-opacity="1" opacity="1" xlink:href="#bHvMwZY8"/></g><g><use fill="#eade13" fill-opacity="1" opacity="1" xlink:href="#a2F39h9StI"/></g><g><g><use fill-opacity="0" stroke="#000" stroke-opacity="1" stroke-width="1" opacity="1" xlink:href="#a25JMLDJ21"/></g></g><g><g><use fill-opacity="0" stroke="#000" stroke-opacity="1" stroke-width="1" opacity="1" xlink:href="#a1c5SJKX2M"/></g></g><g><g><use fill-opacity="0" stroke="#000" stroke-opacity="1" stroke-width="1" opacity="1" xlink:href="#a10QCrQYoZ"/></g></g><g><g><use fill-opacity="0" stroke="#000" stroke-opacity="1" stroke-width="1" opacity="1" xlink:href="#a1buAvuVOl"/></g></g><g><g><use fill-opacity="0" stroke="#000" stroke-opacity="1" stroke-width="1" opacity="1" xlink:href="#d3V9tpGEzV"/></g></g><g><g><use fill-opacity="0" stroke="#000" stroke-opacity="1" stroke-width="1" opacity="1" xlink:href="#a1FirF4NoJ"/></g></g></g></g></svg>